{
  "asset": {
    "version": "2.0",
    "generator": "THREE.GLTFExporter"
  },
  "scenes": [
    {
      "nodes": [
        0
      ]
    }
  ],
  "scene": 0,
  "nodes": [
    {
      "children": [
        6
      ],
      "matrix": [
        0.01,
        0,
        0,
        0,
        0,
        0.01,
        0,
        0,
        0,
        0,
        0.01,
        0,
        0,
        0,
        0,
        1
      ]
    },
    {
      "name": "Cube",
      "mesh": 0
    },
    {
      "matrix": [
        0.46456260115241543,
        0.39487821097955317,
        -0.7926239891046001,
        0,
        -0.6476484200955405,
        0.7619393177594593,
        0,
        0,
        0.6039313814981401,
        0.5133416742734191,
        0.6097107608496923,
        0,
        0,
        0,
        0,
        1
      ],
      "name": "Default Directional Light",
      "extensions": {
        "KHR_lights_punctual": {
          "light": 0
        }
      }
    },
    {
      "matrix": [
        0.7070944798837642,
        8.326672684688674e-17,
        -0.7071190822753329,
        0,
        -0.4082616942999442,
        0.8164902791652382,
        -0.4082474898832942,
        0,
        0.5773558568900534,
        0.5773591811244291,
        0.5773357692764933,
        0,
        566.7444276895767,
        594.5304808897862,
        566.7246622942826,
        1
      ],
      "name": "Default Camera",
      "camera": 0,
      "children": [
        2
      ]
    },
    {
      "matrix": [
        0.7070944798837641,
        0,
        -0.707119082275333,
        0,
        -0.40826169429994424,
        0.8164902791652381,
        -0.4082474898832943,
        0,
        0.5773558568900536,
        0.5773591811244293,
        0.5773357692764933,
        0,
        566.7444276895768,
        594.5304808897862,
        566.724662294283,
        1
      ],
      "camera": 1
    },
    {
      "matrix": [
        1,
        0,
        0,
        0,
        0,
        1,
        0,
        0,
        0,
        0,
        1,
        0,
        0,
        1,
        0,
        1
      ],
      "name": "Default Ambient Light"
    },
    {
      "name": "Scene",
      "children": [
        1,
        3,
        4,
        5
      ]
    }
  ],
  "bufferViews": [
    {
      "buffer": 0,
      "byteOffset": 0,
      "byteLength": 92160,
      "target": 34962,
      "byteStride": 12
    },
    {
      "buffer": 0,
      "byteOffset": 92160,
      "byteLength": 92160,
      "target": 34962,
      "byteStride": 12
    },
    {
      "buffer": 0,
      "byteOffset": 184320,
      "byteLength": 46080,
      "target": 34963
    }
  ],
  "buffers": [
    {
      "byteLength": 230400,
      "uri": "data:application/octet-stream;base64,"
    }
  ],
  "accessors": [
    {
      "bufferView": 0,
      "componentType": 5126,
      "count": 7680,
      "max": [
        418.99847412109375,
        396.09149169921875,
        419.68438720703125
      ],
      "min": [
        -133.71170043945312,
        -133.71170043945312,
        -133.71170043945312
      ],
      "type": "VEC3"
    },
    {
      "bufferView": 1,
      "componentType": 5126,
      "count": 7680,
      "max": [
        1,
        1,
        1
      ],
      "min": [
        -1,
        -1,
        -1
      ],
      "type": "VEC3"
    },
    {
      "bufferView": 2,
      "componentType": 5125,
      "count": 11520,
      "max": [
        7679
      ],
      "min": [
        0
      ],
      "type": "SCALAR"
    }
  ],
  "meshes": [
    {
      "primitives": [
        {
          "mode": 4,
          "attributes": {
            "POSITION": 0,
            "NORMAL": 1
          },
          "extras": {
            "type": "SubdivGeometry",
            "parameters": {
              "width": 561.4419860839844,
              "height": 538.8155822753906,
              "depth": 562.8623962402344
            }
          },
          "indices": 2
        }
      ]
    }
  ],
  "cameras": [
    {
      "type": "orthographic",
      "orthographic": {
        "xmag": 11.049638968393431,
        "ymag": 6.378097160089319,
        "zfar": 50000,
        "znear": 0
      },
      "name": "Camera"
    },
    {
      "type": "orthographic",
      "orthographic": {
        "xmag": 11.049638968393431,
        "ymag": 6.378097160089319,
        "zfar": 100000,
        "znear": 0
      }
    }
  ],
  "extensions": {
    "KHR_lights_punctual": {
      "lights": [
        {
          "name": "Default Directional Light",
          "color": [
            1,
            1,
            1
          ],
          "intensity": 0.75,
          "type": "directional"
        }
      ]
    }
  },
  "extensionsUsed": [
    "KHR_lights_punctual"
  ]
}